<svg width="214" height="61" viewBox="0 0 214 61" fill="none" xmlns="http://www.w3.org/2000/svg">
<path opacity="0.5" d="M64.067 0.410504L48.388 55.9541C48.3082 56.2062 47.9893 56.2819 47.8033 56.1054L37.3064 46.1464L45.1724 18.3115C45.2522 18.0594 45.013 17.8325 44.7472 17.9081L15.4089 25.3711L4.96507 15.4625C4.77905 15.286 4.85878 14.9834 5.12452 14.9078L63.6418 0.00710022C63.9075 -0.0433252 64.1467 0.183589 64.067 0.410504Z" fill="#00B37E"/>
<path opacity="0.5" d="M37.3058 46.1459L33.2665 60.5171C33.1868 60.7693 32.8679 60.8449 32.6818 60.6684L0.101381 29.7828C-0.0846408 29.6063 -0.00491742 29.3038 0.260829 29.2282L15.4084 25.3706L37.3058 46.1459Z" fill="#00B37E"/>
<path d="M45.1711 18.311L37.305 46.1459L15.4076 25.3706L44.7459 17.9076C45.0117 17.832 45.2508 18.0589 45.1711 18.311Z" fill="#00B37E"/>
<path d="M91.167 34.1225C91.167 33.7977 91.117 33.5062 91.0171 33.248C90.9255 32.9815 90.7506 32.74 90.4924 32.5234C90.2342 32.2986 89.8719 32.0779 89.4055 31.8613C88.9391 31.6448 88.3353 31.4199 87.5941 31.1867C86.7695 30.9202 85.9867 30.6204 85.2454 30.2872C84.5125 29.9541 83.8629 29.5668 83.2965 29.1254C82.7385 28.6757 82.2971 28.1551 81.9723 27.5638C81.6558 26.9725 81.4976 26.2854 81.4976 25.5025C81.4976 24.7446 81.6641 24.0575 81.9973 23.4412C82.3304 22.8165 82.7968 22.2835 83.3965 21.8421C83.9961 21.3923 84.7041 21.0467 85.5203 20.8052C86.3448 20.5636 87.2484 20.4429 88.2312 20.4429C89.5721 20.4429 90.7423 20.6844 91.7417 21.1675C92.7411 21.6505 93.5157 22.3126 94.0654 23.1538C94.6234 23.995 94.9024 24.957 94.9024 26.0397H91.1795C91.1795 25.5066 91.0671 25.0402 90.8422 24.6405C90.6257 24.2324 90.2925 23.9117 89.8428 23.6785C89.4014 23.4453 88.8433 23.3287 88.1687 23.3287C87.5191 23.3287 86.9778 23.4287 86.5447 23.6286C86.1116 23.8201 85.7868 24.0825 85.5702 24.4156C85.3537 24.7404 85.2454 25.1069 85.2454 25.515C85.2454 25.8231 85.3204 26.1021 85.4703 26.352C85.6285 26.6018 85.8617 26.835 86.1699 27.0516C86.478 27.2681 86.857 27.4722 87.3067 27.6637C87.7565 27.8553 88.277 28.0427 88.8683 28.2259C89.8594 28.5257 90.7298 28.863 91.4793 29.2378C92.2372 29.6126 92.8702 30.0332 93.3782 30.4996C93.8863 30.966 94.2694 31.4949 94.5276 32.0862C94.7858 32.6775 94.9149 33.348 94.9149 34.0975C94.9149 34.8888 94.7608 35.5967 94.4526 36.2213C94.1445 36.846 93.6989 37.3748 93.1159 37.8079C92.5329 38.241 91.8375 38.57 91.0296 38.7949C90.2217 39.0197 89.3181 39.1322 88.3187 39.1322C87.4192 39.1322 86.5322 39.0156 85.6577 38.7824C84.7832 38.5408 83.9878 38.1785 83.2715 37.6955C82.5636 37.2124 81.9973 36.5961 81.5725 35.8465C81.1478 35.097 80.9354 34.21 80.9354 33.1856H84.6957C84.6957 33.7519 84.7832 34.2308 84.9581 34.6222C85.133 35.0137 85.3787 35.3302 85.6952 35.5717C86.02 35.8132 86.4031 35.9881 86.8445 36.0964C87.2942 36.2047 87.7856 36.2588 88.3187 36.2588C88.9683 36.2588 89.5013 36.1672 89.9177 35.984C90.3425 35.8007 90.6548 35.5467 90.8547 35.2219C91.0629 34.8971 91.167 34.5306 91.167 34.1225ZM96.6639 32.2611V31.9987C96.6639 31.0077 96.8054 30.0957 97.0886 29.2628C97.3718 28.4216 97.7841 27.6929 98.3254 27.0766C98.8668 26.4603 99.5331 25.9814 100.324 25.6399C101.115 25.2901 102.023 25.1152 103.048 25.1152C104.072 25.1152 104.984 25.2901 105.784 25.6399C106.583 25.9814 107.254 26.4603 107.795 27.0766C108.345 27.6929 108.761 28.4216 109.044 29.2628C109.327 30.0957 109.469 31.0077 109.469 31.9987V32.2611C109.469 33.2439 109.327 34.1558 109.044 34.997C108.761 35.8299 108.345 36.5586 107.795 37.1833C107.254 37.7996 106.587 38.2785 105.796 38.62C105.005 38.9614 104.097 39.1322 103.073 39.1322C102.048 39.1322 101.136 38.9614 100.337 38.62C99.5455 38.2785 98.8751 37.7996 98.3254 37.1833C97.7841 36.5586 97.3718 35.8299 97.0886 34.997C96.8054 34.1558 96.6639 33.2439 96.6639 32.2611ZM100.262 31.9987V32.2611C100.262 32.8274 100.312 33.3563 100.412 33.8477C100.512 34.3391 100.67 34.7722 100.886 35.1469C101.111 35.5134 101.403 35.8007 101.761 36.0089C102.119 36.2172 102.556 36.3213 103.073 36.3213C103.572 36.3213 104.001 36.2172 104.359 36.0089C104.718 35.8007 105.005 35.5134 105.221 35.1469C105.438 34.7722 105.596 34.3391 105.696 33.8477C105.804 33.3563 105.859 32.8274 105.859 32.2611V31.9987C105.859 31.4491 105.804 30.9327 105.696 30.4496C105.596 29.9583 105.434 29.5252 105.209 29.1504C104.992 28.7673 104.705 28.4674 104.347 28.2509C103.989 28.0344 103.556 27.9261 103.048 27.9261C102.54 27.9261 102.107 28.0344 101.748 28.2509C101.399 28.4674 101.111 28.7673 100.886 29.1504C100.67 29.5252 100.512 29.9583 100.412 30.4496C100.312 30.9327 100.262 31.4491 100.262 31.9987ZM117.265 36.3213C117.706 36.3213 118.097 36.238 118.439 36.0714C118.78 35.8965 119.047 35.655 119.238 35.3468C119.438 35.0303 119.542 34.6597 119.551 34.235H122.936C122.928 35.1844 122.674 36.0298 122.174 36.771C121.675 37.5039 121.004 38.0828 120.163 38.5075C119.322 38.9239 118.381 39.1322 117.34 39.1322C116.29 39.1322 115.374 38.9573 114.591 38.6075C113.817 38.2577 113.171 37.7746 112.655 37.1583C112.138 36.5336 111.751 35.8091 111.493 34.9845C111.235 34.1517 111.106 33.2605 111.106 32.3111V31.9488C111.106 30.991 111.235 30.0998 111.493 29.2753C111.751 28.4425 112.138 27.7179 112.655 27.1016C113.171 26.4769 113.817 25.9897 114.591 25.6399C115.366 25.2901 116.273 25.1152 117.315 25.1152C118.422 25.1152 119.392 25.3276 120.225 25.7523C121.067 26.1771 121.724 26.7851 122.199 27.5763C122.682 28.3592 122.928 29.2878 122.936 30.3622H119.551C119.542 29.9124 119.447 29.5043 119.263 29.1379C119.089 28.7714 118.83 28.4799 118.489 28.2634C118.156 28.0385 117.743 27.9261 117.252 27.9261C116.727 27.9261 116.298 28.0385 115.965 28.2634C115.632 28.4799 115.374 28.7798 115.191 29.1629C115.008 29.5377 114.878 29.9666 114.803 30.4496C114.737 30.9244 114.704 31.4241 114.704 31.9488V32.3111C114.704 32.8358 114.737 33.3396 114.803 33.8227C114.87 34.3058 114.995 34.7347 115.178 35.1095C115.37 35.4843 115.632 35.7799 115.965 35.9965C116.298 36.213 116.732 36.3213 117.265 36.3213ZM128.82 25.3651V38.8823H125.21V25.3651H128.82ZM124.985 21.8421C124.985 21.3174 125.168 20.8843 125.535 20.5428C125.901 20.2013 126.393 20.0306 127.009 20.0306C127.617 20.0306 128.104 20.2013 128.471 20.5428C128.845 20.8843 129.033 21.3174 129.033 21.8421C129.033 22.3668 128.845 22.7999 128.471 23.1413C128.104 23.4828 127.617 23.6535 127.009 23.6535C126.393 23.6535 125.901 23.4828 125.535 23.1413C125.168 22.7999 124.985 22.3668 124.985 21.8421ZM139.09 35.834V29.8125C139.09 29.3794 139.019 29.0088 138.877 28.7006C138.736 28.3842 138.515 28.1385 138.215 27.9636C137.924 27.7887 137.545 27.7012 137.078 27.7012C136.678 27.7012 136.333 27.772 136.041 27.9136C135.75 28.0468 135.525 28.2426 135.367 28.5008C135.208 28.7506 135.129 29.0463 135.129 29.3877H131.531C131.531 28.8131 131.665 28.2676 131.931 27.7512C132.198 27.2348 132.585 26.7809 133.093 26.3895C133.601 25.9897 134.205 25.6774 134.904 25.4525C135.612 25.2276 136.404 25.1152 137.278 25.1152C138.327 25.1152 139.26 25.2901 140.076 25.6399C140.893 25.9897 141.534 26.5144 142 27.214C142.475 27.9136 142.712 28.7881 142.712 29.8375V35.6217C142.712 36.3629 142.758 36.9709 142.85 37.4456C142.941 37.912 143.075 38.3201 143.25 38.6699V38.8823H139.614C139.439 38.5158 139.306 38.0578 139.214 37.5081C139.131 36.9501 139.09 36.3921 139.09 35.834ZM139.564 30.6495L139.589 32.6859H137.578C137.103 32.6859 136.691 32.74 136.341 32.8483C135.991 32.9565 135.704 33.1106 135.479 33.3105C135.254 33.5021 135.088 33.7269 134.979 33.9851C134.879 34.2433 134.829 34.5265 134.829 34.8346C134.829 35.1428 134.9 35.4218 135.042 35.6716C135.183 35.9132 135.387 36.1047 135.654 36.2463C135.921 36.3796 136.233 36.4462 136.591 36.4462C137.132 36.4462 137.603 36.3379 138.003 36.1214C138.402 35.9048 138.711 35.6383 138.927 35.3218C139.152 35.0054 139.269 34.7055 139.277 34.4224L140.226 35.9465C140.093 36.288 139.91 36.6419 139.677 37.0084C139.452 37.3748 139.164 37.7205 138.815 38.0453C138.465 38.3618 138.044 38.6241 137.553 38.8323C137.062 39.0322 136.479 39.1322 135.804 39.1322C134.946 39.1322 134.167 38.9614 133.468 38.62C132.776 38.2702 132.227 37.7913 131.819 37.1833C131.419 36.567 131.219 35.8674 131.219 35.0845C131.219 34.3766 131.352 33.7477 131.619 33.1981C131.885 32.6484 132.277 32.1861 132.793 31.8114C133.318 31.4282 133.972 31.1409 134.755 30.9494C135.537 30.7495 136.445 30.6495 137.478 30.6495H139.564ZM149.284 19.6933V38.8823H145.673V19.6933H149.284ZM162.601 20.6927V38.8823H158.853V20.6927H162.601ZM169.847 28.4633V31.3866H161.577V28.4633H169.847ZM170.721 20.6927V23.6286H161.577V20.6927H170.721ZM178.617 39.1322C177.567 39.1322 176.626 38.9656 175.793 38.6324C174.961 38.291 174.253 37.8204 173.67 37.2208C173.095 36.6211 172.654 35.9257 172.345 35.1345C172.037 34.3349 171.883 33.4854 171.883 32.5859V32.0862C171.883 31.0618 172.029 30.1248 172.32 29.2753C172.612 28.4258 173.028 27.6887 173.57 27.0641C174.119 26.4394 174.786 25.9605 175.569 25.6274C176.351 25.2859 177.234 25.1152 178.217 25.1152C179.175 25.1152 180.024 25.2734 180.766 25.5899C181.507 25.9064 182.127 26.3562 182.627 26.9392C183.135 27.5222 183.518 28.2217 183.776 29.0379C184.035 29.8458 184.164 30.7453 184.164 31.7364V33.2355H173.42V30.8369H180.628V30.5621C180.628 30.0624 180.537 29.6168 180.353 29.2253C180.178 28.8256 179.912 28.5091 179.554 28.2759C179.196 28.0427 178.738 27.9261 178.18 27.9261C177.705 27.9261 177.297 28.0302 176.955 28.2384C176.614 28.4466 176.335 28.7381 176.118 29.1129C175.91 29.4877 175.752 29.9291 175.644 30.4371C175.544 30.9369 175.494 31.4865 175.494 32.0862V32.5859C175.494 33.1273 175.569 33.627 175.719 34.0851C175.877 34.5431 176.097 34.9387 176.381 35.2719C176.672 35.605 177.022 35.8632 177.43 36.0464C177.846 36.2297 178.317 36.3213 178.842 36.3213C179.491 36.3213 180.095 36.1963 180.653 35.9465C181.22 35.6883 181.707 35.301 182.115 34.7847L183.864 36.6836C183.581 37.0917 183.193 37.4831 182.702 37.8579C182.219 38.2327 181.636 38.5408 180.953 38.7824C180.27 39.0156 179.491 39.1322 178.617 39.1322ZM192.434 39.1322C191.385 39.1322 190.443 38.9656 189.611 38.6324C188.778 38.291 188.07 37.8204 187.487 37.2208C186.912 36.6211 186.471 35.9257 186.163 35.1345C185.854 34.3349 185.7 33.4854 185.7 32.5859V32.0862C185.7 31.0618 185.846 30.1248 186.138 29.2753C186.429 28.4258 186.845 27.6887 187.387 27.0641C187.937 26.4394 188.603 25.9605 189.386 25.6274C190.169 25.2859 191.051 25.1152 192.034 25.1152C192.992 25.1152 193.841 25.2734 194.583 25.5899C195.324 25.9064 195.944 26.3562 196.444 26.9392C196.952 27.5222 197.335 28.2217 197.593 29.0379C197.852 29.8458 197.981 30.7453 197.981 31.7364V33.2355H187.237V30.8369H194.445V30.5621C194.445 30.0624 194.354 29.6168 194.17 29.2253C193.996 28.8256 193.729 28.5091 193.371 28.2759C193.013 28.0427 192.555 27.9261 191.997 27.9261C191.522 27.9261 191.114 28.0302 190.772 28.2384C190.431 28.4466 190.152 28.7381 189.935 29.1129C189.727 29.4877 189.569 29.9291 189.461 30.4371C189.361 30.9369 189.311 31.4865 189.311 32.0862V32.5859C189.311 33.1273 189.386 33.627 189.536 34.0851C189.694 34.5431 189.915 34.9387 190.198 35.2719C190.489 35.605 190.839 35.8632 191.247 36.0464C191.664 36.2297 192.134 36.3213 192.659 36.3213C193.308 36.3213 193.912 36.1963 194.47 35.9465C195.037 35.6883 195.524 35.301 195.932 34.7847L197.681 36.6836C197.398 37.0917 197.01 37.4831 196.519 37.8579C196.036 38.2327 195.453 38.5408 194.77 38.7824C194.087 39.0156 193.308 39.1322 192.434 39.1322ZM208.012 35.934V19.6933H211.635V38.8823H208.375L208.012 35.934ZM199.467 32.2861V32.0237C199.467 30.991 199.584 30.054 199.817 29.2128C200.05 28.3633 200.392 27.6346 200.842 27.0266C201.291 26.4186 201.845 25.9481 202.503 25.6149C203.161 25.2818 203.911 25.1152 204.752 25.1152C205.543 25.1152 206.234 25.2818 206.826 25.6149C207.425 25.9481 207.933 26.4228 208.35 27.0391C208.775 27.6471 209.116 28.3675 209.374 29.2004C209.632 30.0249 209.82 30.9285 209.936 31.9113V32.486C209.82 33.4271 209.632 34.3016 209.374 35.1095C209.116 35.9173 208.775 36.6253 208.35 37.2332C207.933 37.8329 207.425 38.2993 206.826 38.6324C206.226 38.9656 205.526 39.1322 204.727 39.1322C203.886 39.1322 203.136 38.9614 202.478 38.62C201.829 38.2785 201.279 37.7996 200.829 37.1833C200.388 36.567 200.05 35.8424 199.817 35.0095C199.584 34.1767 199.467 33.2689 199.467 32.2861ZM203.065 32.0237V32.2861C203.065 32.8441 203.107 33.3646 203.19 33.8477C203.282 34.3307 203.428 34.7597 203.628 35.1345C203.836 35.5009 204.102 35.7882 204.427 35.9965C204.76 36.1963 205.164 36.2963 205.639 36.2963C206.255 36.2963 206.763 36.1589 207.163 35.884C207.563 35.6009 207.867 35.2136 208.075 34.7222C208.292 34.2308 208.416 33.6645 208.45 33.0232V31.3866C208.425 30.8619 208.35 30.3913 208.225 29.9749C208.108 29.5502 207.933 29.1879 207.7 28.888C207.475 28.5882 207.192 28.355 206.851 28.1884C206.518 28.0219 206.122 27.9386 205.664 27.9386C205.197 27.9386 204.798 28.0468 204.465 28.2634C204.131 28.4716 203.861 28.7589 203.652 29.1254C203.453 29.4919 203.303 29.9249 203.203 30.4247C203.111 30.916 203.065 31.4491 203.065 32.0237Z" fill="#E1E1E6"/>
</svg>
